# xmcd
#
# Track frame offsets: 
#        150
#        17286
#        35630
#        55402
#        76174
#        92982
#        115544
#        133124
#        153552
#        171456
#        191860
#        209756
#        228500
#        247448
#        264551
#        283574
#        301372
#        321047
#
# Disc length: 4550 seconds
#
# Revision: 1
# Processed by: cddbd v1.5.2PL0 Copyright (c) Steve Scherf et al.
# Submitted via: ExactAudioCopyFreeDBPlugin 1.0
#
DISCID=0a11c412
DTITLE=陳慧嫻 - 極品天碟- 陳慧嫻(LPCD 45 II)
DYEAR=1900
DGENRE=Oldies
TTITLE0=今天夜裡總下雨
TTITLE1=逝去的諾言
TTITLE2=玻璃窗的愛
TTITLE3=與淚抱擁
TTITLE4=癡情意外
TTITLE5=千千闋歌
TTITLE6=傻女
TTITLE7=夜機
TTITLE8=花店
TTITLE9=秋色
TTITLE10=飄雪
TTITLE11=多少柔情多少夢
TTITLE12=為何是你
TTITLE13=去吧
TTITLE14=紅茶館
TTITLE15=人生何處不相逢
TTITLE16=今天的愛人是誰
TTITLE17=可否
EXTD=
EXTT0=
EXTT1=
EXTT2=
EXTT3=
EXTT4=
EXTT5=
EXTT6=
EXTT7=
EXTT8=
EXTT9=
EXTT10=
EXTT11=
EXTT12=
EXTT13=
EXTT14=
EXTT15=
EXTT16=
EXTT17=
PLAYORDER=
